<svg xmlns="http://www.w3.org/2000/svg" width="1536" height="1536" viewBox="0 0 1536 1536">
  <defs>
    <linearGradient id="sky" x1="0" y1="0" x2="0" y2="1">
      <stop offset="0" stop-color="#e9f6ff"/>
      <stop offset="0.58" stop-color="#b9d98b"/>
      <stop offset="1" stop-color="#243912"/>
    </linearGradient>
    <linearGradient id="bladeLight" x1="0" y1="0" x2="1" y2="1">
      <stop offset="0" stop-color="#baf25b"/>
      <stop offset="0.45" stop-color="#4f9d24"/>
      <stop offset="1" stop-color="#153b12"/>
    </linearGradient>
    <linearGradient id="bladeMid" x1="0" y1="0" x2="1" y2="1">
      <stop offset="0" stop-color="#93d93f"/>
      <stop offset="0.5" stop-color="#2f7b1f"/>
      <stop offset="1" stop-color="#0b2b10"/>
    </linearGradient>
    <linearGradient id="bladeDark" x1="0" y1="0" x2="1" y2="1">
      <stop offset="0" stop-color="#5ca72b"/>
      <stop offset="0.62" stop-color="#1e5619"/>
      <stop offset="1" stop-color="#071d0a"/>
    </linearGradient>
    <radialGradient id="depthGlow" cx="50%" cy="32%" r="72%">
      <stop offset="0" stop-color="#ffffff" stop-opacity="0.34"/>
      <stop offset="0.46" stop-color="#b6e469" stop-opacity="0.15"/>
      <stop offset="1" stop-color="#071306" stop-opacity="0.58"/>
    </radialGradient>
    <filter id="softShadow" x="-20%" y="-20%" width="140%" height="140%">
      <feDropShadow dx="0" dy="14" stdDeviation="12" flood-color="#061104" flood-opacity="0.45"/>
    </filter>
    <filter id="mist" x="-20%" y="-20%" width="140%" height="140%">
      <feGaussianBlur stdDeviation="7"/>
    </filter>
    <path id="grassBlade" d="M0 0 C-24 -165 -14 -350 16 -570 C34 -360 42 -155 0 0 Z"/>
  </defs>

  <rect width="1536" height="1536" fill="url(#sky)"/>
  <rect width="1536" height="1536" fill="url(#depthGlow)"/>
  <ellipse cx="768" cy="1326" rx="820" ry="245" fill="#071608" opacity="0.72"/>

  <g opacity="0.18" filter="url(#mist)">
    <use href="#grassBlade" x="260" y="1285" transform="rotate(-22 260 1285) scale(0.75)" fill="#d9ff8a"/>
    <use href="#grassBlade" x="410" y="1270" transform="rotate(-10 410 1270) scale(0.68)" fill="#d9ff8a"/>
    <use href="#grassBlade" x="670" y="1265" transform="rotate(6 670 1265) scale(0.82)" fill="#d9ff8a"/>
    <use href="#grassBlade" x="930" y="1285" transform="rotate(13 930 1285) scale(0.72)" fill="#d9ff8a"/>
    <use href="#grassBlade" x="1170" y="1275" transform="rotate(25 1170 1275) scale(0.7)" fill="#d9ff8a"/>
  </g>

  <g filter="url(#softShadow)">
    <use href="#grassBlade" x="78" y="1458" transform="rotate(-34 78 1458) scale(1.28)" fill="url(#bladeDark)"/>
    <use href="#grassBlade" x="155" y="1465" transform="rotate(-27 155 1465) scale(1.1)" fill="url(#bladeMid)"/>
    <use href="#grassBlade" x="228" y="1454" transform="rotate(-18 228 1454) scale(1.34)" fill="url(#bladeLight)"/>
    <use href="#grassBlade" x="314" y="1468" transform="rotate(-10 314 1468) scale(1.06)" fill="url(#bladeDark)"/>
    <use href="#grassBlade" x="396" y="1450" transform="rotate(-5 396 1450) scale(1.42)" fill="url(#bladeMid)"/>
    <use href="#grassBlade" x="480" y="1466" transform="rotate(3 480 1466) scale(1.18)" fill="url(#bladeLight)"/>
    <use href="#grassBlade" x="562" y="1453" transform="rotate(8 562 1453) scale(1.36)" fill="url(#bladeDark)"/>
    <use href="#grassBlade" x="646" y="1468" transform="rotate(13 646 1468) scale(1.12)" fill="url(#bladeMid)"/>
    <use href="#grassBlade" x="726" y="1450" transform="rotate(-3 726 1450) scale(1.5)" fill="url(#bladeLight)"/>
    <use href="#grassBlade" x="812" y="1460" transform="rotate(6 812 1460) scale(1.22)" fill="url(#bladeDark)"/>
    <use href="#grassBlade" x="892" y="1452" transform="rotate(17 892 1452) scale(1.38)" fill="url(#bladeMid)"/>
    <use href="#grassBlade" x="980" y="1464" transform="rotate(25 980 1464) scale(1.14)" fill="url(#bladeLight)"/>
    <use href="#grassBlade" x="1062" y="1454" transform="rotate(31 1062 1454) scale(1.36)" fill="url(#bladeDark)"/>
    <use href="#grassBlade" x="1148" y="1468" transform="rotate(18 1148 1468) scale(1.08)" fill="url(#bladeMid)"/>
    <use href="#grassBlade" x="1230" y="1450" transform="rotate(9 1230 1450) scale(1.45)" fill="url(#bladeLight)"/>
    <use href="#grassBlade" x="1316" y="1465" transform="rotate(27 1316 1465) scale(1.15)" fill="url(#bladeDark)"/>
    <use href="#grassBlade" x="1400" y="1456" transform="rotate(35 1400 1456) scale(1.32)" fill="url(#bladeMid)"/>
  </g>

  <g opacity="0.94">
    <use href="#grassBlade" x="42" y="1518" transform="rotate(-40 42 1518) scale(1.7)" fill="url(#bladeMid)"/>
    <use href="#grassBlade" x="120" y="1515" transform="rotate(-31 120 1515) scale(1.52)" fill="url(#bladeLight)"/>
    <use href="#grassBlade" x="205" y="1522" transform="rotate(-24 205 1522) scale(1.86)" fill="url(#bladeDark)"/>
    <use href="#grassBlade" x="288" y="1514" transform="rotate(-16 288 1514) scale(1.62)" fill="url(#bladeMid)"/>
    <use href="#grassBlade" x="374" y="1520" transform="rotate(-8 374 1520) scale(1.95)" fill="url(#bladeLight)"/>
    <use href="#grassBlade" x="460" y="1512" transform="rotate(-1 460 1512) scale(1.66)" fill="url(#bladeDark)"/>
    <use href="#grassBlade" x="548" y="1521" transform="rotate(7 548 1521) scale(1.88)" fill="url(#bladeMid)"/>
    <use href="#grassBlade" x="636" y="1514" transform="rotate(14 636 1514) scale(1.58)" fill="url(#bladeLight)"/>
    <use href="#grassBlade" x="724" y="1522" transform="rotate(-6 724 1522) scale(2.02)" fill="url(#bladeDark)"/>
    <use href="#grassBlade" x="812" y="1516" transform="rotate(2 812 1516) scale(1.74)" fill="url(#bladeMid)"/>
    <use href="#grassBlade" x="900" y="1522" transform="rotate(10 900 1522) scale(1.92)" fill="url(#bladeLight)"/>
    <use href="#grassBlade" x="988" y="1513" transform="rotate(19 988 1513) scale(1.64)" fill="url(#bladeDark)"/>
    <use href="#grassBlade" x="1075" y="1520" transform="rotate(27 1075 1520) scale(1.86)" fill="url(#bladeMid)"/>
    <use href="#grassBlade" x="1162" y="1514" transform="rotate(15 1162 1514) scale(1.7)" fill="url(#bladeLight)"/>
    <use href="#grassBlade" x="1250" y="1522" transform="rotate(5 1250 1522) scale(1.98)" fill="url(#bladeDark)"/>
    <use href="#grassBlade" x="1338" y="1516" transform="rotate(28 1338 1516) scale(1.62)" fill="url(#bladeMid)"/>
    <use href="#grassBlade" x="1424" y="1522" transform="rotate(39 1424 1522) scale(1.82)" fill="url(#bladeLight)"/>
    <use href="#grassBlade" x="1510" y="1514" transform="rotate(46 1510 1514) scale(1.56)" fill="url(#bladeDark)"/>
  </g>

  <g opacity="0.72">
    <path d="M244 1460 C272 1220 320 1012 390 798" stroke="#c8ff6b" stroke-width="7" stroke-linecap="round" fill="none" opacity="0.48"/>
    <path d="M505 1478 C520 1190 560 914 640 656" stroke="#e1ff86" stroke-width="8" stroke-linecap="round" fill="none" opacity="0.38"/>
    <path d="M780 1480 C760 1168 785 884 850 612" stroke="#d4ff77" stroke-width="7" stroke-linecap="round" fill="none" opacity="0.42"/>
    <path d="M1042 1472 C1018 1238 1045 990 1134 746" stroke="#c2f65f" stroke-width="8" stroke-linecap="round" fill="none" opacity="0.36"/>
    <path d="M1288 1458 C1252 1215 1275 998 1362 790" stroke="#e5ff8d" stroke-width="7" stroke-linecap="round" fill="none" opacity="0.34"/>
  </g>

  <g opacity="0.38">
    <ellipse cx="766" cy="1458" rx="760" ry="68" fill="#071308"/>
    <ellipse cx="760" cy="1346" rx="520" ry="42" fill="#102b0b"/>
  </g>

  <g filter="url(#softShadow)">
    <use href="#grassBlade" x="-18" y="1568" transform="rotate(-44 -18 1568) scale(2.45)" fill="url(#bladeDark)"/>
    <use href="#grassBlade" x="58" y="1562" transform="rotate(-36 58 1562) scale(2.18)" fill="url(#bladeMid)"/>
    <use href="#grassBlade" x="132" y="1574" transform="rotate(-28 132 1574) scale(2.72)" fill="url(#bladeLight)"/>
    <use href="#grassBlade" x="210" y="1565" transform="rotate(-20 210 1565) scale(2.24)" fill="url(#bladeDark)"/>
    <use href="#grassBlade" x="288" y="1570" transform="rotate(-13 288 1570) scale(2.62)" fill="url(#bladeMid)"/>
    <use href="#grassBlade" x="366" y="1563" transform="rotate(-6 366 1563) scale(2.32)" fill="url(#bladeLight)"/>
    <use href="#grassBlade" x="444" y="1572" transform="rotate(2 444 1572) scale(2.8)" fill="url(#bladeDark)"/>
    <use href="#grassBlade" x="522" y="1564" transform="rotate(9 522 1564) scale(2.28)" fill="url(#bladeMid)"/>
    <use href="#grassBlade" x="600" y="1574" transform="rotate(16 600 1574) scale(2.65)" fill="url(#bladeLight)"/>
    <use href="#grassBlade" x="678" y="1565" transform="rotate(-9 678 1565) scale(2.5)" fill="url(#bladeDark)"/>
    <use href="#grassBlade" x="756" y="1570" transform="rotate(-2 756 1570) scale(2.9)" fill="url(#bladeMid)"/>
    <use href="#grassBlade" x="834" y="1564" transform="rotate(6 834 1564) scale(2.34)" fill="url(#bladeLight)"/>
    <use href="#grassBlade" x="912" y="1573" transform="rotate(13 912 1573) scale(2.72)" fill="url(#bladeDark)"/>
    <use href="#grassBlade" x="990" y="1563" transform="rotate(21 990 1563) scale(2.25)" fill="url(#bladeMid)"/>
    <use href="#grassBlade" x="1068" y="1570" transform="rotate(29 1068 1570) scale(2.58)" fill="url(#bladeLight)"/>
    <use href="#grassBlade" x="1146" y="1565" transform="rotate(18 1146 1565) scale(2.42)" fill="url(#bladeDark)"/>
    <use href="#grassBlade" x="1224" y="1574" transform="rotate(9 1224 1574) scale(2.78)" fill="url(#bladeMid)"/>
    <use href="#grassBlade" x="1302" y="1566" transform="rotate(28 1302 1566) scale(2.35)" fill="url(#bladeLight)"/>
    <use href="#grassBlade" x="1380" y="1572" transform="rotate(38 1380 1572) scale(2.58)" fill="url(#bladeDark)"/>
    <use href="#grassBlade" x="1458" y="1564" transform="rotate(46 1458 1564) scale(2.18)" fill="url(#bladeMid)"/>
    <use href="#grassBlade" x="1532" y="1576" transform="rotate(52 1532 1576) scale(2.52)" fill="url(#bladeLight)"/>
  </g>

  <g opacity="0.66">
    <path d="M130 1535 C208 1260 268 1030 360 790" stroke="#d7ff77" stroke-width="10" stroke-linecap="round" fill="none"/>
    <path d="M420 1536 C470 1238 510 996 604 720" stroke="#f0ffa3" stroke-width="9" stroke-linecap="round" fill="none"/>
    <path d="M760 1536 C720 1245 748 990 834 690" stroke="#c9fb65" stroke-width="10" stroke-linecap="round" fill="none"/>
    <path d="M1096 1536 C1070 1250 1114 1010 1222 760" stroke="#dfff83" stroke-width="9" stroke-linecap="round" fill="none"/>
    <path d="M1395 1536 C1332 1265 1368 1040 1470 814" stroke="#bff158" stroke-width="10" stroke-linecap="round" fill="none"/>
  </g>

  <g filter="url(#softShadow)">
    <use href="#grassBlade" transform="translate(10 1560) rotate(-36) scale(1.75)" fill="url(#bladeDark)"/>
    <use href="#grassBlade" transform="translate(88 1548) rotate(-28) scale(1.55)" fill="url(#bladeMid)"/>
    <use href="#grassBlade" transform="translate(164 1564) rotate(-20) scale(1.92)" fill="url(#bladeLight)"/>
    <use href="#grassBlade" transform="translate(238 1556) rotate(-12) scale(1.62)" fill="url(#bladeDark)"/>
    <use href="#grassBlade" transform="translate(312 1568) rotate(-4) scale(1.88)" fill="url(#bladeMid)"/>
    <use href="#grassBlade" transform="translate(386 1554) rotate(5) scale(1.58)" fill="url(#bladeLight)"/>
    <use href="#grassBlade" transform="translate(460 1564) rotate(13) scale(1.98)" fill="url(#bladeDark)"/>
    <use href="#grassBlade" transform="translate(536 1554) rotate(-8) scale(1.7)" fill="url(#bladeMid)"/>
    <use href="#grassBlade" transform="translate(612 1568) rotate(2) scale(2.05)" fill="url(#bladeLight)"/>
    <use href="#grassBlade" transform="translate(690 1558) rotate(10) scale(1.64)" fill="url(#bladeDark)"/>
    <use href="#grassBlade" transform="translate(768 1566) rotate(-2) scale(2.14)" fill="url(#bladeMid)"/>
    <use href="#grassBlade" transform="translate(846 1555) rotate(7) scale(1.72)" fill="url(#bladeLight)"/>
    <use href="#grassBlade" transform="translate(924 1566) rotate(16) scale(1.96)" fill="url(#bladeDark)"/>
    <use href="#grassBlade" transform="translate(1002 1554) rotate(24) scale(1.62)" fill="url(#bladeMid)"/>
    <use href="#grassBlade" transform="translate(1080 1568) rotate(32) scale(1.88)" fill="url(#bladeLight)"/>
    <use href="#grassBlade" transform="translate(1158 1558) rotate(20) scale(1.7)" fill="url(#bladeDark)"/>
    <use href="#grassBlade" transform="translate(1236 1568) rotate(10) scale(2.05)" fill="url(#bladeMid)"/>
    <use href="#grassBlade" transform="translate(1314 1554) rotate(27) scale(1.66)" fill="url(#bladeLight)"/>
    <use href="#grassBlade" transform="translate(1390 1562) rotate(38) scale(1.86)" fill="url(#bladeDark)"/>
    <use href="#grassBlade" transform="translate(1464 1554) rotate(48) scale(1.58)" fill="url(#bladeMid)"/>
    <use href="#grassBlade" transform="translate(1534 1568) rotate(56) scale(1.8)" fill="url(#bladeLight)"/>
  </g>
</svg>
